<svg xmlns:xlink="http://www.w3.org/1999/xlink" class="header__logo" height="24px" version="1.1" viewBox="0 0 118 24" width="118px" xmlns="http://www.w3.org/2000/svg"><g _ngcontent-c1="" fill="none" fill-rule="evenodd" stroke="none" stroke-width="1"><g _ngcontent-c1=""><g _ngcontent-c1="" class="header__logo__letters" fill="#303030"><path _ngcontent-c1="" d="M48.0041959,6.80069882 L48.0041959,5.10901647 L44.2281617,5.10901647 L44.2281617,22.8930165 L44.2281617,22.8943929 L48.0041959,22.8943929 L48.0041959,22.8930165 L48.0041959,14.0147812 C48.0041959,11.1572282 50.3671991,8.83925176 53.2802601,8.83925176 L53.2802601,5.13516941 C51.3101553,5.13516941 49.4901938,5.75320471 48.0041959,6.80069882 Z"></path><path _ngcontent-c1="" d="M86.6939895,19.4256182 C83.7989898,19.4256182 81.4444459,17.0439712 81.4444459,14.1187947 C81.4444459,11.1922065 83.7989898,8.81055939 86.6939895,8.81055939 C89.5889891,8.81055939 91.943533,11.1922065 91.943533,14.1187947 C91.943533,17.0439712 89.5889891,19.4256182 86.6939895,19.4256182 Z M91.9547052,0.42467704 L91.9547052,6.72679469 C90.474387,5.64820645 88.6589024,5.01150057 86.6939895,5.01150057 C81.7181652,5.01150057 77.6849963,9.08867704 77.6849963,14.1187947 C77.6849963,19.1489123 81.7181652,23.2260888 86.6939895,23.2260888 C88.6589024,23.2260888 90.474387,22.5879712 91.9547052,21.5093829 L91.9547052,23.2260888 L95.7141548,23.2260888 L95.7141548,0.42467704 L91.9547052,0.42467704 Z"></path><path _ngcontent-c1="" d="M64.2616248,19.1889341 C61.3666252,19.1889341 59.0120813,16.8668282 59.0120813,14.0147812 C59.0120813,11.1613576 61.3666252,8.83925176 64.2616248,8.83925176 C67.1566245,8.83925176 69.5111684,11.1613576 69.5111684,14.0147812 C69.5111684,16.8668282 67.1566245,19.1889341 64.2616248,19.1889341 Z M69.5223406,5.10901647 L69.5223406,6.80895765 C68.0420224,5.75595765 66.2265378,5.13516941 64.2616248,5.13516941 C59.2858005,5.13516941 55.2526317,9.11041647 55.2526317,14.0147812 C55.2526317,18.9191459 59.2858005,22.8943929 64.2616248,22.8943929 C66.2265378,22.8943929 68.0420224,22.2722282 69.5223406,21.2206047 L69.5223406,22.8943929 L73.2817902,22.8943929 L73.2817902,5.10901647 L69.5223406,5.10901647 Z"></path><path _ngcontent-c1="" d="M108.354291,5.13530706 C103.378466,5.13530706 99.3452974,9.11055412 99.3452974,14.0149188 C99.3452974,18.9192835 103.378466,22.8945306 108.354291,22.8945306 C113.330115,22.8945306 117.363284,18.9192835 117.363284,14.0149188 C117.363284,9.11055412 113.330115,5.13530706 108.354291,5.13530706 M108.354291,8.83938941 C111.24929,8.83938941 113.603834,11.1614953 113.603834,14.0149188 C113.603834,16.8669659 111.24929,19.1890718 108.354291,19.1890718 C105.459291,19.1890718 103.104747,16.8669659 103.104747,14.0149188 C103.104747,11.1614953 105.459291,8.83938941 108.354291,8.83938941"></path><path _ngcontent-c1="" d="M31,8.75459267 C33.2238413,8.75459267 35.1254069,10.1498333 35.8857541,12.1087513 L26.1142459,12.1087513 C26.873198,10.1498333 28.7747636,8.75459267 31,8.75459267 Z M34.2185708,18.13061 C33.3298713,18.8268351 32.2151604,19.2454073 31,19.2454073 C28.7649977,19.2454073 26.8578515,17.8376095 26.1044799,15.8647392 L26.126802,15.8647392 L39.8060766,15.8647392 C39.9316385,15.2633904 40,14.6397179 40,13.9993024 C40,9.02945508 35.9708572,5 31,5 C26.0291428,5 22,9.02945508 22,13.9993024 C22,18.9705449 26.0291428,23 31,23 C34.4808557,23 37.4985274,21.0215487 38.9955046,18.13061 L34.2185708,18.13061 Z" id="Fill-15"></path><polygon _ngcontent-c1="" points="0 5 9.91601332 23 12 19.2165428 4.17055096 5"></polygon></g><g _ngcontent-c1="" class="header__logo__diamond" fill="#06C7A2" transform="translate(9.000000, 5.000000)"><polygon _ngcontent-c1="" points="0 0 5.99932652 10 12 0"></polygon></g></g></g></svg>